<!-- Generated by IcoMoon.io -->
<svg version="1.1" xmlns="http://www.w3.org/2000/svg" width="41" height="32" viewBox="0 0 41 32">
<path d="M2.047 31.415h32.751c1.13 0 2.047-0.917 2.047-2.047v-2.729c0-1.13-0.917-2.047-2.047-2.047h-0.682v-17.015l3.876-3.671c0.9 0.443 1.988 0.174 2.577-0.638s0.506-1.931-0.195-2.648-1.818-0.824-2.643-0.253c-0.825 0.571-1.118 1.653-0.694 2.563l-2.92 2.768v-1.574c0-1.13-0.916-2.047-2.047-2.047h-27.292c-1.13 0-2.047 0.917-2.047 2.047v20.469h-0.682c-1.13 0-2.047 0.917-2.047 2.047v2.729c0 1.13 0.917 2.047 2.047 2.047zM38.892 1.393c0.377 0 0.682 0.305 0.682 0.682s-0.306 0.682-0.682 0.682c-0.377 0-0.682-0.305-0.682-0.682s0.305-0.682 0.682-0.682zM4.094 4.122c0-0.377 0.306-0.682 0.682-0.682h27.292c0.377 0 0.682 0.305 0.682 0.682v2.865l-1.365 1.297v-2.798c0-0.377-0.306-0.682-0.682-0.682h-24.563c-0.377 0-0.682 0.306-0.682 0.682v17.058c0 0.377 0.306 0.682 0.682 0.682h24.563c0.377 0 0.682-0.306 0.682-0.682v-12.383l1.365-1.293v15.723h-28.657v-20.469zM10.235 12.992c-0.923-0.003-1.734 0.612-1.979 1.502s0.135 1.834 0.928 2.305c0.794 0.471 1.805 0.353 2.468-0.289l2.372 1.19c0.276 0.138 0.61 0.073 0.815-0.157l5.042-5.672 4.956 3.714c0.266 0.199 0.637 0.178 0.878-0.050l4.307-4.080v10.408h-23.199v-15.693h23.199v3.405l-4.828 4.572-4.998-3.747c-0.284-0.213-0.683-0.173-0.919 0.092l-5.111 5.751-1.911-0.955c0.014-0.082 0.023-0.165 0.026-0.248 0-1.13-0.917-2.047-2.047-2.047zM10.917 15.039c0 0.377-0.305 0.682-0.682 0.682s-0.682-0.306-0.682-0.682c0-0.377 0.306-0.682 0.682-0.682s0.682 0.305 0.682 0.682zM15.011 25.956h6.823v0.682c0 0.377-0.306 0.682-0.682 0.682h-5.459c-0.377 0-0.682-0.305-0.682-0.682v-0.682zM1.365 26.639c0-0.377 0.306-0.682 0.682-0.682h11.599v0.682c0 1.13 0.916 2.047 2.047 2.047h5.459c1.13 0 2.047-0.916 2.047-2.047v-0.682h11.599c0.377 0 0.682 0.306 0.682 0.682v2.729c0 0.377-0.305 0.682-0.682 0.682h-32.751c-0.377 0-0.682-0.306-0.682-0.682v-2.729z"></path>
</svg>
