<svg xmlns="http://www.w3.org/2000/svg" aria-hidden="true" style="position:absolute;width:0;height:0;overflow:hidden">
  <defs>
    <symbol id="icontechnologies" viewBox="0 0 29 32">
      <path d="M28.245 13.451a2.028 2.028 0 0 0-1.358-.805 2.029 2.029 0 0 0-1.531.402l-1.431 1.097-2.169 1.62-1.552-.618c2.767-1.242 4.701-4.009 4.701-7.223C24.905 3.555 21.336 0 16.949 0S8.993 3.555 8.993 7.924c0 1.584.474 3.056 1.28 4.295l-3.159-.027h-.005c-.01 0-.018.005-.027.005a.598.598 0 0 0-.177.035c-.015.005-.03.009-.044.015l-.022.007-3.695 1.824-.001.001L.979 15.12a.432.432 0 0 0-.072.04 2.034 2.034 0 0 0 .523 3.639 2.033 2.033 0 0 0 1.575-.146l1.586-.844 2.587-1.336 1.551-.009-6.219 6.189-.002.001-1.53 1.524c-.361.36-.56.837-.56 1.346s.199.987.56 1.347c.371.369.859.555 1.348.555s.976-.185 1.349-.555l1.502-1.496 1.989-1.485 1.03 1.025-2.013 2.005-.002.001-1.53 1.524c-.361.36-.56.837-.56 1.346s.199.987.56 1.347c.371.369.86.555 1.348.555s.977-.185 1.349-.555l3.979-3.962.001-.002 1.154-1.143-.004-.004c.007-.007.018-.01.025-.018l5.904-6.467 3.967.564a.606.606 0 0 0 .3-.038c.02-.007.038-.017.057-.027.022-.011.045-.017.066-.031l3.672-2.438c.013-.009.021-.024.034-.034.015-.012.033-.016.046-.029l1.453-1.361c.756-.708.86-1.869.242-2.699zm-25.81 4.127a.816.816 0 0 1-.638.059.817.817 0 0 1-.243-1.44l1.501-.722.513 1.5-1.134.603zm3.996-2.089-1.769.914-.502-1.467 2.316-1.143-.045 1.696zm17.257-7.566c0 1.05-.25 2.04-.684 2.925l-4.779-2.171a2.126 2.126 0 0 0-.901-1.586l1.673-5.555c2.717.864 4.691 3.399 4.691 6.386zm-13.473 0c0-3.697 3.022-6.705 6.736-6.705.289 0 .572.024.852.06l-1.637 5.433c-.022-.001-.043-.007-.065-.007-1.18 0-2.14.957-2.14 2.133s.96 2.133 2.14 2.133c.794 0 1.479-.438 1.849-1.08l4.414 2.005a6.733 6.733 0 0 1-5.413 2.731c-3.714 0-6.736-3.008-6.736-6.705zm6.807.914c0 .504-.413.914-.921.914s-.921-.41-.921-.914.413-.914.921-.914.921.41.921.914zM2.817 26.008a.695.695 0 0 1-.976.001.678.678 0 0 1 0-.965l1.099-1.095.973.969-1.096 1.091zm3.673 4.266a.695.695 0 0 1-.977.001.678.678 0 0 1 0-.965l1.1-1.096.973.969-1.097 1.092zm3.979-3.964-.002.001-2.017 2.011-.973-.969 2.015-2.006v-.001l.002-.001c.046-.046.074-.101.102-.155.008-.016.023-.029.03-.046.019-.047.022-.098.029-.147.004-.028.016-.054.016-.083 0-.041-.015-.08-.023-.121-.007-.037-.007-.074-.021-.109a.612.612 0 0 0-.104-.157c-.012-.013-.016-.03-.029-.043h-.001l-.001-.002-1.837-1.829c-.019-.02-.044-.027-.066-.044a.588.588 0 0 0-.099-.066.59.59 0 0 0-.107-.037.587.587 0 0 0-.118-.023.57.57 0 0 0-.109.006.61.61 0 0 0-.119.023c-.038.012-.072.031-.108.051-.023.013-.048.017-.07.033l-2.027 1.513-1.03-1.025 2.742-2.727 4.984 4.901-1.06 1.05zm7.793-8.019c-.018-.002-.034.004-.052.003a.655.655 0 0 0-.233.032.646.646 0 0 0-.205.124c-.015.013-.032.019-.046.034l-5.369 5.881L7.411 19.5l3.238-3.221a.61.61 0 0 0-.434-1.042v-.001l-2.536.015.032-1.837 3.547.03a7.94 7.94 0 0 0 5.693 2.401c.5 0 .988-.052 1.462-.14.046.037.091.074.148.097l2.754 1.097.174.867.204 1.012-3.432-.488zm4.618.203-.358-1.78 1.653-1.234 1.082 1.436-2.377 1.579zm4.29-3.235-.958.897-1.064-1.413.95-.728a.837.837 0 0 1 .62-.163.816.816 0 0 1 .451 1.407z"/>
    </symbol>
    <symbol id="icondiligence1" viewBox="0 0 41 32">
      <path d="M2.047 31.415h32.751c1.13 0 2.047-.917 2.047-2.047v-2.729c0-1.13-.917-2.047-2.047-2.047h-.682V7.577l3.876-3.671a2.06 2.06 0 1 0-.955-.976l-2.92 2.768V4.124c0-1.13-.916-2.047-2.047-2.047H4.778c-1.13 0-2.047.917-2.047 2.047v20.469h-.682c-1.13 0-2.047.917-2.047 2.047v2.729c0 1.13.917 2.047 2.047 2.047zM38.892 1.393a.682.682 0 1 1 0 1.363.682.682 0 0 1 0-1.363zM4.094 4.122c0-.377.306-.682.682-.682h27.292c.377 0 .682.305.682.682v2.865l-1.365 1.297V5.486a.682.682 0 0 0-.682-.682H6.14a.682.682 0 0 0-.682.682v17.058c0 .377.306.682.682.682h24.563a.682.682 0 0 0 .682-.682V10.161l1.365-1.293v15.723H4.093V4.122zm6.141 8.87a2.045 2.045 0 0 0-1.051 3.807 2.047 2.047 0 0 0 2.468-.289l2.372 1.19c.276.138.61.073.815-.157l5.042-5.672 4.956 3.714a.683.683 0 0 0 .878-.05l4.307-4.08v10.408H6.823V6.17h23.199v3.405l-4.828 4.572-4.998-3.747a.682.682 0 0 0-.919.092l-5.111 5.751-1.911-.955c.014-.082.023-.165.026-.248 0-1.13-.917-2.047-2.047-2.047zm.682 2.047a.682.682 0 1 1-1.363 0 .682.682 0 0 1 1.363 0zm4.094 10.917h6.823v.682a.682.682 0 0 1-.682.682h-5.459a.682.682 0 0 1-.682-.682v-.682zm-13.646.683c0-.377.306-.682.682-.682h11.599v.682c0 1.13.916 2.047 2.047 2.047h5.459c1.13 0 2.047-.916 2.047-2.047v-.682h11.599c.377 0 .682.306.682.682v2.729a.682.682 0 0 1-.682.682H2.047a.682.682 0 0 1-.682-.682v-2.729z"/>
    </symbol>
    <symbol id="iconpunctuality" viewBox="0 0 31 32">
      <path d="M30.609 15.301C30.607 6.849 23.754-.002 15.301 0S-.002 6.855 0 15.308a15.304 15.304 0 0 0 10.649 14.576.662.662 0 0 0 .529-.065.637.637 0 0 0 .283-.356l3.865-12.25a1.912 1.912 0 1 0-.84-3.635L9.38 8.471a.637.637 0 0 0-.902.902l5.103 5.109a1.876 1.876 0 0 0 .536 2.309l-3.683 11.673C3.156 25.783-.57 17.71 2.111 10.432S12.865-.572 20.143 2.109c7.278 2.681 11.004 10.754 8.323 18.032a14.042 14.042 0 0 1-7.462 7.973l-.398-1.874a.637.637 0 0 0-1.049-.344l-3.837 3.426a.637.637 0 0 0 .231 1.084l4.899 1.564a.638.638 0 0 0 .819-.74l-.391-1.839a15.255 15.255 0 0 0 9.329-14.089zm-15.304-.637a.638.638 0 1 1 0 1.277.638.638 0 0 1 0-1.277zm2.1 14.864 2.184-1.948.603 2.84-2.787-.892z"/>
    </symbol>
    <symbol id="iconstrategy" viewBox="0 0 30 32">
      <path d="m29.702 22.098-8.443-8.505.937-4.615c.242.094.499.144.758.146h.006a2.159 2.159 0 1 0-2.008-1.435l-4.96.605L7.901.161a.534.534 0 0 0-.377-.16.532.532 0 0 0-.373.155L5.638 1.66a.534.534 0 0 0 0 .754l.814.826a14.943 14.943 0 0 0 2.519 17.663.513.513 0 0 0 .146.098c-.034.18-.051.364-.052.547v6.187h-6.4a2.67 2.67 0 0 0-2.667 2.667v1.067c0 .295.239.533.533.533h24.533a.533.533 0 0 0 .533-.533v-1.067a2.67 2.67 0 0 0-2.667-2.667h-6.4v-2.742a15.09 15.09 0 0 0 3.049.32 14.854 14.854 0 0 0 7.04-1.783l.818.823a.534.534 0 0 0 .377.16.532.532 0 0 0 .373-.155l1.513-1.504a.534.534 0 0 0 0-.754zM22.209 6.233a1.067 1.067 0 1 1 .753 1.822h-.003a1.067 1.067 0 0 1-.747-1.823h-.002zm-1.255 3.505-.598 2.946-1.175-1.182 1.774-1.763zm-.606-.902-1.92 1.909-1.485-1.493 3.405-.415zM22.933 28.8a1.6 1.6 0 0 1 1.6 1.6v.533H1.066V30.4a1.6 1.6 0 0 1 1.6-1.6h20.267zm-7.466-2.133v1.067h-5.333v-1.067h5.333zM10.133 25.6v-4.053c0-1.294 1.196-2.347 2.667-2.347s2.667 1.053 2.667 2.347V25.6h-5.333zm6.4-1.696v-2.357c0-1.882-1.675-3.413-3.733-3.413a3.8 3.8 0 0 0-3.281 1.786A13.87 13.87 0 0 1 7.24 4.033l18.602 18.708a13.818 13.818 0 0 1-9.309 1.163zm11.289-.684L6.765 2.039l.755-.752 7.935 7.98c.004 0 .006.007.01.01L28.58 22.468l-.757.752z"/>
    </symbol>

    <symbol id="iconinstagram" viewBox="0 0 32 32">
      <path d="M31.969 9.408c-0.075-1.7-0.35-2.869-0.744-3.882-0.406-1.075-1.031-2.038-1.85-2.838-0.8-0.813-1.769-1.444-2.832-1.844-1.019-0.394-2.182-0.669-3.882-0.744-1.713-0.081-2.257-0.1-6.601-0.1s-4.888 0.019-6.595 0.094c-1.7 0.075-2.869 0.35-3.882 0.744-1.075 0.406-2.038 1.031-2.838 1.85-0.813 0.8-1.444 1.769-1.844 2.832-0.394 1.019-0.669 2.182-0.744 3.882-0.081 1.713-0.1 2.257-0.1 6.601s0.019 4.888 0.094 6.595c0.075 1.7 0.35 2.869 0.744 3.882 0.406 1.075 1.038 2.038 1.85 2.838 0.8 0.813 1.769 1.444 2.832 1.844 1.019 0.394 2.182 0.669 3.882 0.744 1.706 0.075 2.25 0.094 6.595 0.094s4.888-0.019 6.595-0.094c1.7-0.075 2.869-0.35 3.882-0.744 2.151-0.832 3.851-2.532 4.682-4.682 0.394-1.019 0.669-2.182 0.744-3.882 0.075-1.707 0.094-2.25 0.094-6.595s-0.006-4.888-0.081-6.595zM29.087 22.473c-0.069 1.563-0.331 2.407-0.55 2.969-0.538 1.394-1.644 2.501-3.038 3.038-0.563 0.219-1.413 0.481-2.969 0.55-1.688 0.075-2.194 0.094-6.464 0.094s-4.782-0.019-6.464-0.094c-1.563-0.069-2.407-0.331-2.969-0.55-0.694-0.256-1.325-0.663-1.838-1.194-0.531-0.519-0.938-1.144-1.194-1.838-0.219-0.563-0.481-1.413-0.55-2.969-0.075-1.688-0.094-2.194-0.094-6.464s0.019-4.782 0.094-6.464c0.069-1.563 0.331-2.407 0.55-2.969 0.256-0.694 0.663-1.325 1.2-1.838 0.519-0.531 1.144-0.938 1.838-1.194 0.563-0.219 1.413-0.481 2.969-0.55 1.688-0.075 2.194-0.094 6.464-0.094 4.276 0 4.782 0.019 6.464 0.094 1.563 0.069 2.407 0.331 2.969 0.55 0.694 0.256 1.325 0.662 1.838 1.194 0.531 0.519 0.938 1.144 1.194 1.838 0.219 0.563 0.481 1.413 0.55 2.969 0.075 1.688 0.094 2.194 0.094 6.464s-0.019 4.77-0.094 6.458z"></path>
      <path d="M16.059 7.783c-4.538 0-8.22 3.682-8.22 8.22s3.682 8.22 8.22 8.22c4.538 0 8.22-3.682 8.22-8.22s-3.682-8.22-8.22-8.22zM16.059 21.335c-2.944 0-5.332-2.388-5.332-5.332s2.388-5.332 5.332-5.332c2.944 0 5.332 2.388 5.332 5.332s-2.388 5.332-5.332 5.332z"></path>
      <path d="M26.524 7.458c0 1.060-0.859 1.919-1.919 1.919s-1.919-0.859-1.919-1.919c0-1.060 0.859-1.919 1.919-1.919s1.919 0.859 1.919 1.919z"></path>
    </symbol>
    <symbol id="iconlinkedin" viewBox="0 0 32 32">
      <path d="M31.992 32v-0.001h0.008v-11.736c0-5.741-1.236-10.164-7.948-10.164-3.227 0-5.392 1.771-6.276 3.449h-0.093v-2.913h-6.364v21.364h6.627v-10.579c0-2.785 0.528-5.479 3.977-5.479 3.399 0 3.449 3.179 3.449 5.657v10.401h6.62z"></path>
      <path d="M0.528 10.636h6.635v21.364h-6.635v-21.364z"></path>
      <path d="M3.843 0c-2.121 0-3.843 1.721-3.843 3.843s1.721 3.879 3.843 3.879c2.121 0 3.843-1.757 3.843-3.879-0.001-2.121-1.723-3.843-3.843-3.843v0z"></path>
    </symbol>
    <symbol id="iconfacebook" viewBox="0 0 16 32">
      <path d="M13.080 5.313h2.921v-5.088c-0.504-0.069-2.237-0.225-4.256-0.225-4.212 0-7.097 2.649-7.097 7.519v4.481h-4.648v5.688h4.648v14.312h5.699v-14.311h4.46l0.708-5.688h-5.169v-3.919c0.001-1.644 0.444-2.769 2.735-2.769z"></path>
    </symbol>
    <symbol id="icontwitter" viewBox="0 0 39 32">
      <path d="M39.385 3.788c-1.465 0.642-3.025 1.068-4.652 1.275 1.674-0.999 2.951-2.57 3.552-4.463-1.561 0.93-3.284 1.588-5.12 1.954-1.482-1.578-3.594-2.555-5.898-2.555-4.47 0-8.069 3.628-8.069 8.076 0 0.64 0.054 1.255 0.187 1.841-6.713-0.327-12.652-3.545-16.642-8.446-0.697 1.209-1.105 2.592-1.105 4.081 0 2.796 1.44 5.275 3.586 6.71-1.297-0.025-2.57-0.401-3.648-0.994 0 0.025 0 0.057 0 0.089 0 3.924 2.799 7.183 6.469 7.934-0.657 0.18-1.374 0.266-2.117 0.266-0.517 0-1.039-0.030-1.529-0.138 1.046 3.198 4.015 5.548 7.545 5.625-2.747 2.149-6.235 3.444-10.011 3.444-0.662 0-1.297-0.030-1.932-0.111 3.577 2.306 7.815 3.623 12.386 3.623 14.858 0 22.981-12.308 22.981-22.976 0-0.357-0.012-0.702-0.030-1.044 1.602-1.137 2.949-2.558 4.047-4.192z"></path>
    </symbol>
    <symbol id="iconname-icon" viewBox="0 0 32 32">
    <path d="M16 16c4.42 0 8-3.58 8-8s-3.58-8-8-8c-4.42 0-8 3.58-8 8s3.58 8 8 8zM16 20c-5.34 0-16 2.68-16 8v2c0 1.1 0.9 2 2 2h28c1.1 0 2-0.9 2-2v-2c0-5.32-10.66-8-16-8z"></path>
    </symbol>
    <symbol id="iconphone" viewBox="0 0 32 32">
    <path d="M28.865 21.822l-4.525-0.517c-1.087-0.125-2.155 0.249-2.921 1.015l-3.278 3.278c-5.041-2.565-9.174-6.68-11.739-11.739l3.296-3.296c0.766-0.766 1.14-1.835 1.015-2.921l-0.517-4.489c-0.214-1.799-1.728-3.153-3.545-3.153h-3.082c-2.013 0-3.687 1.675-3.563 3.687 0.944 15.213 13.111 27.362 28.306 28.306 2.013 0.125 3.687-1.55 3.687-3.563v-3.082c0.018-1.799-1.336-3.313-3.135-3.527z"></path>
    </symbol>
    <symbol id="iconmail" viewBox="0 0 40 32">
    <path d="M36 0h-32c-2.2 0-3.98 1.8-3.98 4l-0.020 24c0 2.2 1.8 4 4 4h32c2.2 0 4-1.8 4-4v-24c0-2.2-1.8-4-4-4zM35.2 8.5l-14.14 8.84c-0.64 0.4-1.48 0.4-2.12 0l-14.14-8.84c-0.5-0.32-0.8-0.86-0.8-1.44 0-1.34 1.46-2.14 2.6-1.44l13.4 8.38 13.4-8.38c1.14-0.7 2.6 0.1 2.6 1.44 0 0.58-0.3 1.12-0.8 1.44z"></path>
    </symbol>
    <symbol id="iconclose" viewBox="0 0 32 32">
    <path d="M32 3.223l-3.223-3.223-12.777 12.777-12.777-12.777-3.223 3.223 12.777 12.777-12.777 12.777 3.223 3.223 12.777-12.777 12.777 12.777 3.223-3.223-12.777-12.777 12.777-12.777z"></path>
    </symbol>
    <symbol id="iconsend" viewBox="0 0 38 32">
    <path d="M38.4 0l-38.4 18 12.272 3.788 18.928-14.788-14.397 16.186 0.012 0.004-0.014-0.004v8.814l6.882-6.691 8.718 2.691 6-28z"></path>
    </symbol>
    <symbol id="iconcheck" viewBox="0 0 40 32">
    <path d="M33.782 1.020c0.691-0.662 1.611-1.027 2.565-1.020s1.869 0.387 2.55 1.059c0.681 0.672 1.076 1.584 1.101 2.543s-0.321 1.891-0.966 2.598l-19.578 24.617c-0.337 0.365-0.743 0.657-1.195 0.86s-0.939 0.312-1.434 0.322c-0.495 0.009-0.986-0.082-1.445-0.268s-0.876-0.463-1.226-0.815l-12.984-13.054c-0.362-0.339-0.652-0.747-0.853-1.201s-0.309-0.944-0.318-1.441 0.082-0.99 0.267-1.451c0.185-0.461 0.461-0.879 0.81-1.231s0.766-0.628 1.224-0.814 0.949-0.277 1.443-0.269c0.494 0.009 0.981 0.118 1.433 0.32s0.858 0.494 1.195 0.857l10.275 10.325 17.042-21.83c0.031-0.038 0.063-0.074 0.098-0.109h-0.005z"></path>
    </symbol>
    <symbol id="icon-burger-menu" viewBox="0 0 36 32">
    <path d="M0 2.56c0-0.679 0.27-1.33 0.75-1.81s1.131-0.75 1.81-0.75h30.72c0.679 0 1.33 0.27 1.81 0.75s0.75 1.131 0.75 1.81-0.27 1.33-0.75 1.81c-0.48 0.48-1.131 0.75-1.81 0.75h-30.72c-0.679 0-1.33-0.27-1.81-0.75s-0.75-1.131-0.75-1.81z"></path>
    <path d="M0 15.36c0-0.679 0.27-1.33 0.75-1.81s1.131-0.75 1.81-0.75h30.72c0.679 0 1.33 0.27 1.81 0.75s0.75 1.131 0.75 1.81-0.27 1.33-0.75 1.81c-0.48 0.48-1.131 0.75-1.81 0.75h-30.72c-0.679 0-1.33-0.27-1.81-0.75s-0.75-1.131-0.75-1.81z"></path>
    <path d="M0 28.16c0-0.679 0.27-1.33 0.75-1.81s1.131-0.75 1.81-0.75h30.72c0.679 0 1.33 0.27 1.81 0.75s0.75 1.131 0.75 1.81-0.27 1.33-0.75 1.81c-0.48 0.48-1.131 0.75-1.81 0.75h-30.72c-0.679 0-1.33-0.27-1.81-0.75s-0.75-1.131-0.75-1.81z"></path>
    </symbol>
  </defs>
</svg>