<!-- Generated by IcoMoon.io -->
<svg version="1.1" xmlns="http://www.w3.org/2000/svg" width="29" height="32" viewBox="0 0 29 32">
<path d="M28.245 13.451c-0.328-0.443-0.811-0.728-1.358-0.805-0.55-0.078-1.092 0.066-1.531 0.402l-1.431 1.097-2.169 1.62-1.552-0.618c2.767-1.242 4.701-4.009 4.701-7.223 0-4.369-3.569-7.924-7.956-7.924s-7.956 3.555-7.956 7.924c0 1.584 0.474 3.056 1.28 4.295l-3.159-0.027c-0.002 0-0.004 0-0.005 0-0.010 0-0.018 0.005-0.027 0.005-0.060 0.002-0.12 0.015-0.177 0.035-0.015 0.005-0.030 0.009-0.044 0.015-0.007 0.003-0.015 0.004-0.022 0.007l-3.695 1.824c-0.001 0-0.001 0-0.001 0.001l-2.164 1.041c-0.024 0.010-0.048 0.024-0.072 0.040-0.863 0.574-1.156 1.702-0.684 2.623 0.252 0.49 0.68 0.851 1.207 1.016 0.203 0.063 0.41 0.095 0.616 0.095 0.331 0 0.659-0.081 0.959-0.241l1.586-0.844 2.587-1.336 1.551-0.009-6.219 6.189c-0.001 0.001-0.001 0.001-0.002 0.001l-1.53 1.524c-0.361 0.36-0.56 0.837-0.56 1.346s0.199 0.987 0.56 1.347c0.371 0.369 0.859 0.555 1.348 0.555s0.976-0.185 1.349-0.555l1.502-1.496 1.989-1.485 1.030 1.025-2.013 2.005c-0.001 0.001-0.001 0.001-0.002 0.001l-1.53 1.524c-0.361 0.36-0.56 0.837-0.56 1.346s0.199 0.987 0.56 1.347c0.371 0.369 0.86 0.555 1.348 0.555s0.977-0.185 1.349-0.555l3.979-3.962c0.001-0.001 0.001-0.001 0.001-0.002l1.154-1.143-0.004-0.004c0.007-0.007 0.018-0.010 0.025-0.018l5.904-6.467 3.967 0.564c0.029 0.004 0.057 0.006 0.086 0.006 0.074 0 0.145-0.018 0.214-0.044 0.020-0.007 0.038-0.017 0.057-0.027 0.022-0.011 0.045-0.017 0.066-0.031l3.672-2.438c0.013-0.009 0.021-0.024 0.034-0.034 0.015-0.012 0.033-0.016 0.046-0.029l1.453-1.361c0.756-0.708 0.86-1.869 0.242-2.699zM2.435 17.578c-0.198 0.106-0.423 0.127-0.638 0.059-0.213-0.066-0.386-0.212-0.488-0.409-0.184-0.358-0.077-0.795 0.245-1.031l1.501-0.722 0.513 1.5-1.134 0.603zM6.431 15.489l-1.769 0.914-0.502-1.467 2.316-1.143-0.045 1.696zM23.688 7.923c0 1.050-0.25 2.040-0.684 2.925l-4.779-2.171c-0.050-0.655-0.39-1.229-0.901-1.586l1.673-5.555c2.717 0.864 4.691 3.399 4.691 6.386zM10.215 7.923c0-3.697 3.022-6.705 6.736-6.705 0.289 0 0.572 0.024 0.852 0.060l-1.637 5.433c-0.022-0.001-0.043-0.007-0.065-0.007-1.18 0-2.14 0.957-2.14 2.133s0.96 2.133 2.14 2.133c0.794 0 1.479-0.438 1.849-1.080l4.414 2.005c-1.228 1.653-3.194 2.731-5.413 2.731-3.714 0-6.736-3.008-6.736-6.705zM17.022 8.837c0 0.504-0.413 0.914-0.921 0.914s-0.921-0.41-0.921-0.914c0-0.504 0.413-0.914 0.921-0.914s0.921 0.41 0.921 0.914zM2.817 26.008c-0.27 0.268-0.707 0.267-0.976 0.001-0.13-0.13-0.201-0.301-0.201-0.483s0.071-0.353 0.201-0.482l1.099-1.095 0.973 0.969-1.096 1.091zM6.49 30.274c-0.27 0.268-0.708 0.268-0.977 0.001-0.13-0.13-0.201-0.301-0.201-0.483s0.071-0.353 0.201-0.482l1.1-1.096 0.973 0.969-1.097 1.092zM10.469 26.31c-0.001 0.001-0.001 0.001-0.002 0.001l-2.017 2.011-0.973-0.969 2.015-2.006c0 0 0 0 0-0.001s0.001-0.001 0.002-0.001c0.046-0.046 0.074-0.101 0.102-0.155 0.008-0.016 0.023-0.029 0.030-0.046 0.019-0.047 0.022-0.098 0.029-0.147 0.004-0.028 0.016-0.054 0.016-0.083 0-0.041-0.015-0.080-0.023-0.121-0.007-0.037-0.007-0.074-0.021-0.109-0.023-0.057-0.063-0.108-0.104-0.157-0.012-0.013-0.016-0.030-0.029-0.043 0 0 0 0-0.001 0s-0.001-0.002-0.001-0.002l-1.837-1.829c-0.019-0.020-0.044-0.027-0.066-0.044-0.032-0.025-0.063-0.048-0.099-0.066-0.035-0.017-0.070-0.027-0.107-0.037-0.039-0.011-0.077-0.020-0.118-0.023-0.037-0.002-0.072 0.001-0.109 0.006-0.041 0.005-0.079 0.010-0.119 0.023-0.038 0.012-0.072 0.031-0.108 0.051-0.023 0.013-0.048 0.017-0.070 0.033l-2.027 1.513-1.030-1.025 2.742-2.727 4.984 4.901-1.060 1.050zM18.262 18.291c-0.018-0.002-0.034 0.004-0.052 0.003-0.044-0.002-0.087 0.001-0.132 0.008-0.035 0.006-0.068 0.013-0.101 0.024-0.039 0.013-0.074 0.032-0.11 0.054-0.034 0.021-0.065 0.043-0.095 0.070-0.015 0.013-0.032 0.019-0.046 0.034l-5.369 5.881-4.946-4.865 3.238-3.221c0.238-0.238 0.24-0.624 0.002-0.863-0.12-0.12-0.278-0.179-0.436-0.179v-0.001l-2.536 0.015 0.032-1.837 3.547 0.030c1.446 1.479 3.462 2.401 5.693 2.401 0.5 0 0.988-0.052 1.462-0.14 0.046 0.037 0.091 0.074 0.148 0.097l2.754 1.097 0.174 0.867 0.204 1.012-3.432-0.488zM22.88 18.494l-0.358-1.78 1.653-1.234 1.082 1.436-2.377 1.579zM27.17 15.259l-0.958 0.897-1.064-1.413 0.95-0.728c0.177-0.136 0.401-0.192 0.62-0.163 0.221 0.031 0.416 0.146 0.549 0.325 0.247 0.333 0.205 0.799-0.098 1.082z"></path>
</svg>
